<svg width="187" height="47" viewBox="0 0 187 47" fill="none" xmlns="http://www.w3.org/2000/svg">
<path d="M71.0391 31.3945C71.0391 30.418 70.668 29.6628 69.9258 29.1289C69.1966 28.582 67.9141 28.1133 66.0781 27.7227C64.2552 27.332 62.8034 26.8633 61.7227 26.3164C60.6549 25.7695 59.8607 25.1185 59.3398 24.3633C58.832 23.6081 58.5781 22.7096 58.5781 21.668C58.5781 19.9362 59.3073 18.4714 60.7656 17.2734C62.237 16.0755 64.112 15.4766 66.3906 15.4766C68.7865 15.4766 70.7266 16.0951 72.2109 17.332C73.7083 18.569 74.457 20.151 74.457 22.0781H70.8242C70.8242 21.0885 70.401 20.2357 69.5547 19.5195C68.7214 18.8034 67.6667 18.4453 66.3906 18.4453C65.0755 18.4453 64.0469 18.7318 63.3047 19.3047C62.5625 19.8776 62.1914 20.6263 62.1914 21.5508C62.1914 22.4232 62.5365 23.0807 63.2266 23.5234C63.9167 23.9661 65.1602 24.3893 66.957 24.793C68.7669 25.1966 70.2318 25.6784 71.3516 26.2383C72.4714 26.7982 73.2982 27.4753 73.832 28.2695C74.3789 29.0508 74.6523 30.0078 74.6523 31.1406C74.6523 33.0286 73.8971 34.5456 72.3867 35.6914C70.8763 36.8242 68.9167 37.3906 66.5078 37.3906C64.8151 37.3906 63.3177 37.0911 62.0156 36.4922C60.7135 35.8932 59.6914 35.0599 58.9492 33.9922C58.2201 32.9115 57.8555 31.7461 57.8555 30.4961H61.4688C61.5339 31.707 62.0156 32.6706 62.9141 33.3867C63.8255 34.0898 65.0234 34.4414 66.5078 34.4414C67.875 34.4414 68.9688 34.168 69.7891 33.6211C70.6224 33.0612 71.0391 32.319 71.0391 31.3945ZM92.4062 37C92.1979 36.5833 92.0286 35.8411 91.8984 34.7734C90.2188 36.5182 88.2135 37.3906 85.8828 37.3906C83.7995 37.3906 82.0872 36.8047 80.7461 35.6328C79.418 34.4479 78.7539 32.9505 78.7539 31.1406C78.7539 28.9401 79.5872 27.2344 81.2539 26.0234C82.9336 24.7995 85.2904 24.1875 88.3242 24.1875H91.8398V22.5273C91.8398 21.2643 91.4622 20.2617 90.707 19.5195C89.9518 18.7643 88.8385 18.3867 87.3672 18.3867C86.0781 18.3867 84.9974 18.7122 84.125 19.3633C83.2526 20.0143 82.8164 20.8021 82.8164 21.7266H79.1836C79.1836 20.6719 79.5547 19.6562 80.2969 18.6797C81.0521 17.6901 82.0677 16.9089 83.3438 16.3359C84.6328 15.763 86.0456 15.4766 87.582 15.4766C90.0169 15.4766 91.9245 16.0885 93.3047 17.3125C94.6849 18.5234 95.401 20.1966 95.4531 22.332V32.0586C95.4531 33.9987 95.7005 35.5417 96.1953 36.6875V37H92.4062ZM86.4102 34.2461C87.543 34.2461 88.6172 33.9531 89.6328 33.3672C90.6484 32.7812 91.3841 32.0195 91.8398 31.082V26.7461H89.0078C84.5807 26.7461 82.3672 28.0417 82.3672 30.6328C82.3672 31.7656 82.7448 32.651 83.5 33.2891C84.2552 33.9271 85.2253 34.2461 86.4102 34.2461ZM104.516 15.8672L104.613 18.2109C106.163 16.388 108.253 15.4766 110.883 15.4766C113.839 15.4766 115.85 16.6094 116.918 18.875C117.621 17.8594 118.533 17.0391 119.652 16.4141C120.785 15.7891 122.12 15.4766 123.656 15.4766C128.292 15.4766 130.648 17.931 130.727 22.8398V37H127.113V23.0547C127.113 21.5443 126.768 20.418 126.078 19.6758C125.388 18.9206 124.229 18.543 122.602 18.543C121.26 18.543 120.147 18.9466 119.262 19.7539C118.376 20.5482 117.862 21.6224 117.719 22.9766V37H114.086V23.1523C114.086 20.0794 112.582 18.543 109.574 18.543C107.204 18.543 105.583 19.5521 104.711 21.5703V37H101.098V15.8672H104.516ZM154.047 26.668C154.047 29.8841 153.311 32.4753 151.84 34.4414C150.368 36.4076 148.376 37.3906 145.863 37.3906C143.298 37.3906 141.28 36.5768 139.809 34.9492V45.125H136.195V15.8672H139.496L139.672 18.2109C141.143 16.388 143.188 15.4766 145.805 15.4766C148.344 15.4766 150.349 16.4336 151.82 18.3477C153.305 20.2617 154.047 22.9245 154.047 26.3359V26.668ZM150.434 26.2578C150.434 23.875 149.926 21.9935 148.91 20.6133C147.895 19.2331 146.501 18.543 144.73 18.543C142.543 18.543 140.902 19.513 139.809 21.4531V31.5508C140.889 33.4779 142.543 34.4414 144.77 34.4414C146.501 34.4414 147.875 33.7578 148.891 32.3906C149.919 31.0104 150.434 28.9661 150.434 26.2578ZM162.582 37H158.969V7H162.582V37ZM177.152 37.3906C174.288 37.3906 171.957 36.4531 170.16 34.5781C168.363 32.6901 167.465 30.1706 167.465 27.0195V26.3555C167.465 24.2591 167.862 22.3906 168.656 20.75C169.464 19.0964 170.583 17.8073 172.016 16.8828C173.461 15.9453 175.023 15.4766 176.703 15.4766C179.451 15.4766 181.586 16.3815 183.109 18.1914C184.633 20.0013 185.395 22.5924 185.395 25.9648V27.4688H171.078C171.13 29.5521 171.736 31.2383 172.895 32.5273C174.066 33.8034 175.551 34.4414 177.348 34.4414C178.624 34.4414 179.704 34.181 180.59 33.6602C181.475 33.1393 182.25 32.4492 182.914 31.5898L185.121 33.3086C183.35 36.0299 180.694 37.3906 177.152 37.3906ZM176.703 18.4453C175.245 18.4453 174.021 18.9792 173.031 20.0469C172.042 21.1016 171.43 22.5859 171.195 24.5H181.781V24.2266C181.677 22.3906 181.182 20.9714 180.297 19.9688C179.411 18.9531 178.214 18.4453 176.703 18.4453Z" fill="#264653"/>
<path d="M42.625 31.5937C42.625 39.8437 35.1312 43.625 22.1375 43.625C9.075 43.625 1.64999 39.8437 1.64999 31.5937C1.64999 19.4937 42.625 19.4937 42.625 31.5937Z" fill="#E7A74F"/>
<path d="M42.4875 25.8875C42.4875 34.1375 35.0625 37.9188 22.0687 37.9188C9.14374 37.9188 1.64999 34.1375 1.64999 25.8875C1.71874 13.8563 42.4875 13.8563 42.4875 25.8875Z" fill="#BA8443"/>
<path d="M1.64999 26.0938C1.64999 22.6563 5.70625 17.9125 22.1375 17.9125C38.5687 17.9125 42.625 22.725 42.625 26.0938C42.625 32.35 36.85 36.8875 22.1375 36.8875C7.425 36.8875 1.64999 32.35 1.64999 26.0938Z" fill="#826046"/>
<path d="M2.0625 22.5187C2.0625 19.0812 6.05 14.3375 22.1375 14.3375C38.225 14.3375 42.2125 19.15 42.2125 22.5187C42.2125 28.775 36.575 33.3125 22.1375 33.3125C7.7 33.3125 2.0625 28.775 2.0625 22.5187Z" fill="#68472C"/>
<path d="M2.2 18.05C3.1625 15.9875 5.70625 15.85 13.9563 19.3562C22.2063 22.8625 23.7875 24.7187 22.825 26.85C21.0375 30.6312 16.1563 33.45 8.73125 30.2875C1.30625 27.125 0.343752 21.9 2.2 18.05Z" fill="#EF4D3C"/>
<path d="M2.8875 15.7125C3.85 13.65 6.39375 13.5125 14.6438 17.0187C22.8938 20.525 24.475 22.3812 23.5125 24.5125C21.725 28.2937 16.8438 31.1125 9.41875 27.95C1.99375 24.7875 1.03125 19.4937 2.8875 15.7125Z" fill="#D33B23"/>
<path d="M20.1437 24.7187C19.5937 22.5187 21.5187 20.9375 30.3875 19.0125C39.2562 17.0875 41.6625 17.6375 42.2125 19.9062C43.2437 23.9625 41.1812 28.9812 33.2062 30.7C25.3 32.4187 21.1062 28.775 20.1437 24.7187" fill="#EF4D3C"/>
<path d="M19.25 22.5188C18.7 20.3188 20.625 18.7375 29.4938 16.8125C38.3625 14.8875 40.7688 15.4375 41.3188 17.7063C42.35 21.7625 40.2875 26.7813 32.3125 28.5C24.4063 30.2188 20.2813 26.575 19.25 22.5188Z" fill="#D33B23"/>
<path d="M6.66873 22.2437L20.4187 35.4437L33.8937 22.2437H6.66873Z" fill="#FFE62E"/>
<path d="M41.7313 18.8062C41.7313 18.8062 42.35 21.1437 41.7313 21.8312C41.1813 22.45 39.4625 21.7625 38.7063 22.3125C38.0188 22.7937 38.225 24.65 37.4 25.0625C36.6438 25.475 35.2 24.3062 34.375 24.65C33.6188 24.925 33.3438 26.7812 32.5188 27.0562C31.6938 27.2625 30.4563 25.8875 29.6313 26.025C28.8063 26.1625 28.2563 27.95 27.3625 28.0875C26.5375 28.225 25.5063 26.6437 24.6125 26.7125C23.7875 26.7812 22.9625 28.4312 22.0688 28.4312C21.175 28.4312 20.4188 26.7125 19.525 26.7125C18.6313 26.6437 17.6688 28.225 16.775 28.0875C15.8813 27.95 15.3313 26.2312 14.5063 26.025C13.6125 25.8187 12.4438 27.2625 11.6188 27.0562C10.7938 26.7812 10.5188 24.9937 9.76251 24.65C8.93751 24.3062 7.42501 25.475 6.73751 25.0625C5.91251 24.65 6.11876 22.7937 5.43126 22.3125C4.67501 21.7625 2.95626 22.45 2.40626 21.8312C1.78751 21.1437 2.40626 18.8062 2.40626 18.8062H41.7313Z" fill="#8CC63E"/>
<path d="M42.625 17.0875C42.625 21.5562 33.4812 23.7562 22.1375 23.7562C10.7937 23.7562 1.64999 21.5562 1.64999 17.0875C1.64999 8.975 10.7937 2.375 22.1375 2.375C33.4812 2.375 42.625 8.975 42.625 17.0875Z" fill="#E7A74F"/>
<path d="M11.2062 10.9L10.1062 11.9312L9.07498 10.9L10.1062 9.86871L11.2062 10.9Z" fill="#FFC17A"/>
<path d="M16.2938 9.25L15.2625 10.2812L14.2313 9.25L15.2625 8.21875L16.2938 9.25Z" fill="#FFC17A"/>
<path d="M19.25 13.925L18.15 14.9562L17.1187 13.925L18.15 12.8937L19.25 13.925Z" fill="#FFC17A"/>
<path d="M22.825 10.2125L22.1375 10.9L21.45 10.2125L22.1375 9.52496L22.825 10.2125Z" fill="#FFC17A"/>
<path d="M35.6812 12.8937L34.9937 13.5812L34.3062 12.8937L34.9937 12.2062L35.6812 12.8937Z" fill="#FFC17A"/>
<path d="M39.9438 13.5812L39.2563 14.2687L38.5688 13.5812L39.2563 12.8937L39.9438 13.5812Z" fill="#FFC17A"/>
<path d="M31.9 8.5625L31.2125 9.25L30.525 8.5625L31.2125 7.875L31.9 8.5625Z" fill="#FFC17A"/>
<path d="M10.9312 7.66873L10.2437 8.35623L9.55624 7.66873L10.2437 6.98123L10.9312 7.66873Z" fill="#FFC17A"/>
<path d="M7.21875 10.9L6.53125 11.5875L5.84375 10.9L6.53125 10.2125L7.21875 10.9Z" fill="#FFC17A"/>
<path d="M11.55 15.5062L10.8625 16.1937L10.1062 15.5062L10.8625 14.8187L11.55 15.5062Z" fill="#FFC17A"/>
<path d="M19.5937 4.91873L18.9062 5.60623L18.15 4.91873L18.9062 4.23123L19.5937 4.91873Z" fill="#FFC17A"/>
<path d="M26.125 4.23123L25.4375 4.91873L24.75 4.23123L25.4375 3.54373L26.125 4.23123Z" fill="#FFC17A"/>
<path d="M15.2625 5.60623L14.575 6.29373L13.8875 5.60623L14.575 4.91873L15.2625 5.60623Z" fill="#FFC17A"/>
<path d="M34.9937 7.25623L34.3062 7.94373L33.6187 7.25623L34.3062 6.56873L34.9937 7.25623Z" fill="#FFC17A"/>
<path d="M27.5 15.9187L26.4688 16.95L25.4375 15.9187L26.4688 14.8875L27.5 15.9187Z" fill="#FFC17A"/>
<path d="M25.85 10.625L24.8188 11.6562L23.7875 10.625L24.8188 9.59375L25.85 10.625Z" fill="#FFC17A"/>
<path d="M29.7 6.63748L28.6688 7.66873L27.6375 6.63748L28.6688 5.60623L29.7 6.63748Z" fill="#FFC17A"/>
<path d="M32.725 11.1062L31.6937 12.1375L30.5938 11.1062L31.6937 10.075L32.725 11.1062Z" fill="#FFC17A"/>
<path d="M37.125 9.59375L36.0937 10.625L34.9937 9.59375L36.0937 8.5625L37.125 9.59375Z" fill="#FFC17A"/>
<path d="M33.7563 15.6437L32.725 16.675L31.6938 15.6437L32.725 14.6125L33.7563 15.6437Z" fill="#FFC17A"/>
<path d="M8.59375 13.8562L7.5625 14.8875L6.53125 13.8562L7.5625 12.825L8.59375 13.8562Z" fill="#FFC17A"/>
</svg>
